<svg width="20" height="36" viewBox="0 0 20 36" fill="none" xmlns="http://www.w3.org/2000/svg">
<path fill-rule="evenodd" clip-rule="evenodd" d="M7.35259 3.67731C5.98101 4.24919 6.30285 3.95546 5.02247 4.91265C3.74311 5.86905 3.25424 7.20959 3.10829 8.59163C2.18187 8.59163 1.46676 8.67069 0.927226 8.98886C-0.594044 9.88597 -0.415566 12.2773 2.76184 12.2773C2.34026 12.5082 1.62535 12.5866 0.853674 13.4357C-0.226606 14.6243 0.0766671 16.5385 0.0766671 18.2837H3.80126C5.13061 18.2837 5.34879 20.1266 3.54138 20.1266H0.0766671L0.0766671 23.0615H3.62801C5.33313 23.0615 5.11031 24.9044 3.80126 24.9044H0.0766671L0.0766671 27.7711H3.80126C5.09939 27.7711 5.34836 29.6139 3.62801 29.6139H0.0766671C0.0766671 31.5296 -0.42564 34.1057 2.18181 35.1218C2.60303 35.286 3.21733 35.4838 3.80126 35.4838H15.9279C17.2484 35.4838 18.5722 34.6991 19.1329 33.7093C19.3159 33.3862 19.4793 32.9492 19.4793 32.4806V15.0758C19.4793 14.456 19.0355 13.6868 18.6744 13.3211C17.8499 12.4862 17.2806 12.4919 16.9673 12.2773C20.368 12.2773 20.5934 8.59163 16.7075 8.59163H16.361C16.361 7.29713 15.7546 6.22739 15.0382 5.47037C14.3618 4.75556 13.0641 3.86713 12.03 3.67731C12.03 2.82918 12.1448 2.06971 11.7678 1.49504C11.379 0.902252 10.6777 0.588451 9.95024 0.537598H9.52765C8.78428 0.588949 8.07134 0.91189 7.69493 1.48988C7.28648 2.11711 7.35259 2.74833 7.35259 3.67731Z" fill="#2DA639"/>
</svg>
