<svg width="26" height="35" viewBox="0 0 26 35" fill="none" xmlns="http://www.w3.org/2000/svg">
<path fill-rule="evenodd" clip-rule="evenodd" d="M7.65152 22.7287C7.65152 21.5969 7.68461 21.2355 8.53637 20.3907C9.50258 19.4319 11.0196 19.3447 12.153 20.0782C12.3394 20.1988 12.4144 20.2986 12.5809 20.4079C13.123 20.0511 13.5129 19.589 14.6638 19.589C16.1589 19.589 17.5103 20.8735 17.5103 22.1825C17.5103 24.0184 16.8772 24.2725 15.3754 25.749L13.4315 27.66C12.3439 28.7296 12.6322 28.5465 9.7865 25.749C9.3416 25.3116 8.94878 24.9211 8.50153 24.4869C8.11487 24.1117 7.65152 23.4541 7.65152 22.7287ZM11.3311 11.0573C11.3311 12.4889 13.8308 12.4889 13.8308 11.0573C13.8308 9.55752 11.3311 9.55752 11.3311 11.0573ZM5.31927 0H5.99074C6.73099 0.0529471 7.46332 0.282566 8.11078 0.709021C8.53286 0.986993 8.91162 1.27821 9.2093 1.67646C9.32463 1.83041 9.39573 1.95358 9.52599 2.04768C9.5333 2.04969 12.0222 1.26497 14.2423 1.71128C15.8943 2.04306 15.4957 2.27528 15.9816 1.63703C16.7531 0.623845 18.0319 0.0466165 19.3561 0H19.7074C20.9964 0.0457532 22.2896 0.598536 23.1648 1.74438C24.5677 3.58113 24.4535 6.11308 22.6669 7.79962C21.9656 8.46117 21.5154 8.52044 20.9121 8.80475C20.9121 10.4752 20.1716 12.427 19.0912 13.4986L17.9962 14.5383C18.3416 14.5305 19.3263 14.2195 19.7176 14.1147C20.1016 14.0117 20.932 13.7383 21.4472 13.8028C22.1336 13.8885 22.5542 14.0255 23.0533 14.3446C24.4477 15.2364 24.849 17.1862 23.816 18.6898C23.2289 19.5441 22.2831 19.8687 21.1205 20.1351C21.9401 23.5931 20.8553 25.3858 20.8427 25.9366L23.2321 27.2735C26.727 29.5019 25.063 34.4864 21.5104 34.9462H20.4298C20.349 34.9362 20.2676 34.9247 20.1853 34.91C19.6362 34.8121 19.2338 34.6389 18.8053 34.424C18.4057 34.2237 18.0319 33.997 17.6529 33.7823C16.8799 33.3449 16.1194 32.8992 15.3124 32.4658C15.0873 32.3447 14.9196 32.2503 14.6934 32.1188C13.2398 31.2736 13.7561 31.6756 12.5809 31.6756C11.2102 31.6756 12.0424 31.2549 10.3807 32.1688C9.06206 32.894 6.19885 34.7192 4.91769 34.9206C4.8533 34.9307 4.78949 34.939 4.72598 34.9462H3.78638C3.03794 34.8616 2.40483 34.5851 1.94353 34.2784C0.218632 33.1314 -0.440808 31.1505 0.301193 29.2216C0.930211 27.5857 2.6908 26.7838 4.31911 25.9366C4.30711 25.4045 3.22586 23.5761 4.04133 20.1351C3.8698 20.054 3.41963 19.9585 3.17785 19.8917C0.108281 19.0448 0.173858 15.4778 2.19438 14.2923C4.19793 13.1168 5.49665 14.4016 7.16564 14.5383L6.03582 13.4647C4.9777 12.387 4.24974 10.4663 4.24974 8.80475C4.07616 8.72302 3.87332 8.67815 3.6936 8.60045C1.25217 7.54237 0.0719908 4.23347 2.02637 1.70495C2.80905 0.692917 4.04075 0.0903554 5.31927 0ZM9.87314 12.1493C9.87314 11.3292 10.0113 10.7534 10.7346 10.1975C12.7516 8.64678 15.2887 10.1831 15.2887 11.7399V12.1493C15.2887 13.4178 13.9882 14.4016 12.5116 14.4016C11.2076 14.4016 9.87314 13.3985 9.87314 12.1493ZM16.0524 9.48732C14.9431 9.48732 14.7329 7.84911 16.1218 7.84911C17.0985 7.84911 17.1433 9.48732 16.0524 9.48732ZM8.27645 8.53169C8.27645 7.61231 10.0122 7.43217 10.0122 8.60017C10.0122 9.69019 8.27645 9.72242 8.27645 8.53169ZM17.7881 3.13969C18.3167 2.36332 19.0386 2.32074 19.8013 2.32074C20.6961 2.32074 21.7455 3.35206 21.7455 4.23173V4.64122C21.7455 5.4596 21.0734 6.33581 20.4262 6.48429C19.9111 5.4288 19.5633 4.70969 18.6047 3.83837C18.3838 3.6378 17.9295 3.34716 17.7881 3.13969ZM4.73564 6.48429C4.15521 6.35135 3.41642 5.48118 3.41642 4.7779V4.23173C3.41642 3.34458 4.45815 2.32074 5.36055 2.32074C6.12333 2.32074 6.84514 2.36332 7.37376 3.13969C7.24088 3.33508 6.80592 3.6217 6.59341 3.80557C6.2893 4.06916 6.12948 4.3005 5.864 4.59027C5.25752 5.2524 5.06991 5.79943 4.73564 6.48429Z" fill="#2DA639"/>
</svg>
