<svg width="22" height="22" viewBox="0 0 22 22" fill="none" xmlns="http://www.w3.org/2000/svg">
<path fill-rule="evenodd" clip-rule="evenodd" d="M7.79904 10.4759C7.79904 11.4637 8.16108 12.3275 8.81839 13.0139C9.05643 13.2627 9.53417 13.587 9.83442 13.7222C11.1221 14.3007 12.5337 14.1199 13.5979 13.2196L13.9164 12.9052C13.9549 12.8592 13.9852 12.8385 14.0221 12.7928C14.8835 11.7266 15.1144 10.3328 14.5285 9.07171C14.5019 9.01489 14.4982 8.98958 14.4684 8.93567C14.3423 8.70966 14.2042 8.47661 14.0345 8.27838C13.9918 8.22861 13.9707 8.21368 13.9317 8.16267C13.612 7.74465 12.9256 7.33448 12.3525 7.16653C11.8482 7.01889 11.3813 6.95546 10.8446 7.03964C9.8655 7.1935 9.00125 7.68201 8.436 8.51598L8.18718 8.92198C7.99102 9.25706 7.79904 9.96662 7.79904 10.4759ZM5.48539 10.5634C5.48539 10.254 5.51028 10.091 5.52812 9.82065C5.61728 8.48115 6.55325 6.85842 7.57136 6.05804C8.08684 5.65287 8.28795 5.5048 8.90421 5.2087C9.29859 5.01918 9.83273 4.86117 10.2711 4.78569C14.9137 3.98779 18.5474 8.53504 16.6443 12.9488C16.5697 13.1221 16.4797 13.2644 16.398 13.4224C15.977 14.2394 15.0266 15.1633 14.2299 15.5975C12.912 16.3154 11.497 16.5754 9.99864 16.2208C9.66315 16.1412 9.219 16.0006 8.90631 15.8509C8.34065 15.5805 8.08891 15.4117 7.58338 15.0128L6.98165 14.4363C6.82863 14.2543 6.6698 14.0759 6.5375 13.8765C6.4388 13.728 6.34465 13.5978 6.25673 13.4369C5.94984 12.8733 5.79184 12.5084 5.63799 11.873C5.54634 11.4961 5.48539 11.0291 5.48539 10.5634ZM17.1838 3.53578C17.1838 3.35165 17.217 3.19074 17.2871 3.02776C17.3676 2.84114 17.497 2.70554 17.6483 2.58195C17.8714 2.3999 18.1219 2.35719 18.406 2.35719C18.9762 2.35719 19.4971 2.87804 19.4971 3.44826C19.4971 3.67925 19.4917 3.81029 19.3814 4.03092C19.2408 4.3125 19.016 4.49791 18.7278 4.59952C18.2832 4.75628 17.8474 4.64801 17.5268 4.32745C17.3605 4.16115 17.1838 3.85842 17.1838 3.53578ZM0.792969 5.45627V15.605C0.792969 15.8335 0.831559 16.0056 0.868053 16.2067L1.15252 17.275C1.18528 17.3725 1.21804 17.4338 1.25453 17.5226C1.28522 17.598 1.32464 17.6843 1.36072 17.7652L1.72233 18.4076C1.775 18.4885 1.81442 18.5357 1.86667 18.6124L2.16316 18.9927C2.60856 19.502 3.0498 19.8951 3.63703 20.2468C4.24997 20.6142 4.92056 20.8664 5.62888 20.9829C5.84038 21.0177 6.00875 21.0613 6.24928 21.0613H16.398C16.6787 21.0613 17.2713 20.9439 17.5595 20.8697L17.8092 20.7921C17.9233 20.7598 17.9565 20.7386 18.068 20.7017C18.1655 20.669 18.2268 20.6362 18.3156 20.5997L18.9965 20.2551C19.2404 20.1079 19.5858 19.869 19.7969 19.6807C19.8695 19.616 19.913 19.5878 19.9827 19.5173C20.2601 19.2366 20.5546 18.9438 20.7806 18.6124C20.9195 18.4088 21.187 17.9929 21.2932 17.7502C21.61 17.0274 21.6424 16.915 21.783 16.1885C21.8219 15.9857 21.8543 15.7961 21.8543 15.5614V5.45627C21.8543 5.22776 21.8157 5.05567 21.7792 4.85454C21.7 4.41785 21.6648 4.22501 21.496 3.78501C21.4271 3.60627 21.3599 3.46071 21.2865 3.29607L21.0481 2.85775C21.0058 2.78766 20.9722 2.72666 20.9249 2.65368C20.6997 2.30781 20.4364 1.99804 20.1465 1.70775C20.0225 1.58375 19.935 1.49208 19.7977 1.38011C19.4635 1.10765 18.9563 0.744376 18.5582 0.567711C17.9556 0.29981 17.0943 0 16.398 0H6.24928C5.46175 0 4.33374 0.394363 3.65072 0.806167L3.2418 1.07366C2.61891 1.49791 1.99689 2.19463 1.60748 2.84406L1.36072 3.29607C1.1007 3.8808 0.98376 4.16034 0.871374 4.83631C0.836124 5.04698 0.792969 5.21615 0.792969 5.45627Z" fill="#FF8B0F"/>
</svg>
