<svg width="22" height="22" viewBox="0 0 22 22" fill="none" xmlns="http://www.w3.org/2000/svg">
<path fill-rule="evenodd" clip-rule="evenodd" d="M0.806641 5.45627V15.605C0.806641 15.8335 0.845231 16.0056 0.881725 16.2067L1.16619 17.275C1.19895 17.3725 1.23171 17.4338 1.2682 17.5226C1.29889 17.598 1.33831 17.6843 1.37439 17.7652L1.736 18.4076C1.78867 18.4885 1.82809 18.5357 1.88034 18.6124L2.17683 18.9927C2.62223 19.502 3.06348 19.8951 3.6507 20.2468C4.26364 20.6142 4.93423 20.8664 5.64255 20.9829C5.85405 21.0177 6.02242 21.0613 6.26295 21.0613H16.4116C16.6924 21.0613 17.285 20.9439 17.5733 20.8697L17.8229 20.7921C17.9369 20.7598 17.9701 20.7386 18.0817 20.7017C18.1791 20.669 18.2405 20.6362 18.3292 20.5997L19.0102 20.2551C19.254 20.1079 19.5995 19.869 19.8106 19.6807C19.8831 19.616 19.9267 19.5878 19.9964 19.5173C20.2738 19.2366 20.5683 18.9438 20.7943 18.6124C20.9332 18.4088 21.2007 17.9929 21.3068 17.7502C21.6237 17.0274 21.656 16.915 21.7966 16.1885C21.8356 15.9857 21.8679 15.7961 21.8679 15.5614V5.45627C21.8679 5.22776 21.8294 5.05567 21.7929 4.85454C21.7137 4.41785 21.6784 4.22501 21.5096 3.78501C21.4408 3.60627 21.3736 3.46071 21.3002 3.29607L21.0617 2.85775C21.0194 2.78766 20.9859 2.72666 20.9386 2.65368C20.7134 2.30781 20.4501 1.99804 20.1602 1.70775C20.0362 1.58375 19.9487 1.49208 19.8114 1.38011C19.4772 1.10765 18.97 0.744376 18.5718 0.567711C17.9693 0.29981 17.1079 0 16.4116 0H6.26295C5.47542 0 4.34741 0.394363 3.66439 0.806167L3.25552 1.07366C2.63263 1.49791 2.01056 2.19463 1.62115 2.84406L1.37439 3.29607C1.11437 3.8808 0.997432 4.16034 0.885046 4.83631C0.849796 5.04698 0.806641 5.21615 0.806641 5.45627ZM4.66592 6.68176C4.25702 6.75599 4.2703 7.0388 4.35117 7.42365C4.68169 8.9929 6.0987 11.4533 7.09317 12.6601C8.16436 13.9594 9.69217 15.0281 11.6035 15.0012C12.7257 14.9858 12.5503 14.6387 12.5503 13.6492C12.5503 13.3876 12.4989 12.7667 12.6428 12.5979C12.8443 12.362 13.3258 12.5855 13.5099 12.6971C13.9014 12.9351 14.4298 13.4079 14.7483 13.7537C15.0029 14.0295 15.6328 14.7561 15.8796 14.895C16.1595 15.0522 16.5473 15.0037 16.8981 15.0037C17.8154 15.0037 19.1533 15.2483 17.9369 13.5874C17.774 13.3643 17.6006 13.152 17.4314 12.9567C17.0217 12.4831 16.7791 12.2197 16.3208 11.7718C15.6536 11.1207 15.7946 11.0876 16.2918 10.3614C16.7787 9.6502 17.1838 9.04391 17.6255 8.26343C17.7864 7.97936 18.4437 6.89988 17.9071 6.70828C17.7006 6.63405 17.0665 6.66475 16.8073 6.66475C15.2886 6.66475 15.7237 6.60047 14.888 8.18507C14.4961 8.92656 14.0507 9.63444 13.5253 10.2304C13.4291 10.3399 13.0695 10.6899 12.8489 10.7106C12.4885 10.7446 12.5503 10.1686 12.5503 9.87706V7.60403C12.5503 7.23992 12.6071 6.80614 12.3069 6.69666C12.2115 6.66182 9.72162 6.61454 9.51758 6.69873C9.16799 6.84304 9.28615 7.15864 9.4877 7.40166C10.0446 8.07183 9.90613 8.87348 9.90613 9.85426C9.90613 10.2151 9.92606 10.6351 9.89827 10.9897C9.85804 11.5035 9.54534 11.416 9.27164 11.1859C8.65787 10.6675 7.91721 9.33543 7.50873 8.38161C7.39137 8.1079 7.28022 7.85289 7.17903 7.57338C6.8286 6.60296 6.85182 6.66475 5.80884 6.66475C5.50527 6.66475 4.93009 6.63365 4.66592 6.68176Z" fill="#FF8B0F"/>
</svg>
