<svg width="30" height="21" viewBox="0 0 30 21" fill="none" xmlns="http://www.w3.org/2000/svg">
<path fill-rule="evenodd" clip-rule="evenodd" d="M0 7.20634V12.9766C0 13.8566 0.0630435 14.8395 0.163817 15.6842C0.2451 16.3623 0.522141 17.3165 0.81451 17.905C1.06458 18.408 1.26527 18.6253 1.6016 19.0317L2.11375 19.4763C2.65038 19.8802 3.38235 20.2389 4.05376 20.4064C5.22986 20.7 6.18492 20.8477 7.46512 20.8477H22.317C22.9544 20.8477 23.5168 20.7905 24.0957 20.7399C24.8277 20.6772 25.7454 20.4852 26.3969 20.2248C28.1192 19.5351 28.9585 18.274 29.3368 16.4933C29.4446 15.9886 29.54 15.4374 29.5698 14.8386C29.5843 14.545 29.6237 14.258 29.6221 13.9337C29.6208 13.7392 29.6499 13.6567 29.6499 13.4829C29.6511 12.6345 29.6739 6.92476 29.6382 6.68589C29.6134 6.52374 29.6204 5.59274 29.5848 5.35636C29.5296 4.99183 29.5337 4.55927 29.4479 4.0836C29.4031 3.83436 29.3438 3.56398 29.2803 3.3475C29.0655 2.61762 28.8105 2.09923 28.2743 1.5626C28.1971 1.48464 28.1304 1.40749 28.0445 1.3403C27.3594 0.807406 26.7001 0.539536 25.8076 0.335086C25.4576 0.255048 24.1774 0.0551365 23.7784 0.0526483C23.3919 0.0497453 22.8856 0 22.4228 0H7.27936C5.90958 0 4.4382 0.146369 3.25836 0.495137C2.65165 0.674705 1.95658 1.00855 1.48092 1.42948C1.18523 1.69158 0.878344 2.08429 0.689652 2.44592C0.203616 3.38315 0.109899 4.34486 0.0534988 5.42476L0 7.20634ZM12.1484 6.13806C11.402 6.3338 11.4223 6.94176 11.4227 7.47217C11.4227 8.04986 11.397 13.3374 11.4289 13.6397C11.4832 14.1552 12.0087 14.6163 12.6303 14.4459C12.9318 14.3634 17.7955 11.7511 18.7174 11.2883C18.9757 11.1585 19.1889 11.066 19.3361 10.8707C19.7268 10.3519 19.507 9.72443 19.0757 9.46649C18.6573 9.21559 18.1272 8.97218 17.713 8.75695L12.9716 6.29483C12.7224 6.16669 12.4931 6.04807 12.1484 6.13806Z" fill="#FF8B0F"/>
</svg>
